<?xml version="1.0" encoding="utf-8"?>
<!-- Generator: Adobe Illustrator 16.0.0, SVG Export Plug-In . SVG Version: 6.00 Build 0)  -->
<!DOCTYPE svg PUBLIC "-//W3C//DTD SVG 1.1//EN" "http://www.w3.org/Graphics/SVG/1.1/DTD/svg11.dtd">
<svg version="1.1" id="Layer_1" xmlns="http://www.w3.org/2000/svg" xmlns:xlink="http://www.w3.org/1999/xlink" x="0px" y="0px"
	 width="425.196px" height="79.369px" viewBox="0 0 425.196 79.369" enable-background="new 0 0 425.196 79.369"
	 xml:space="preserve">
<g>
	<polygon points="241.28,29.123 230.103,19.121 214.353,36.725 198.603,19.121 187.425,29.123 204.289,47.971 187.425,66.82 
		198.603,76.822 214.353,59.219 230.103,76.822 241.28,66.82 224.416,47.971 	"/>
	<path d="M97.979,2.547v10.205c-1.56,0-5.399,0-7.2,0c-1.934,0-3.316,0.945-4.149,1.846c-0.835,0.898-1.25,2.416-1.25,4.549v3.1
		h11.8v9.5h-11.8v42.201h-15.2V31.746h-4.5v-9.5h4.5v-4c0-4.6,1.433-8.365,4.3-11.299c2.866-2.934,8.2-4.4,14-4.4"/>
	<path d="M119.979,2.547v71.4h-15.199v-71.4H119.979z"/>
	<path d="M165.178,73.947v-3.201h-0.299c-0.941,0.986-1.693,1.68-4.559,3.014c-2.867,1.332-7.242,1.486-10.242,1.486
		c-3.8,0-6.917-0.5-9.35-1.5c-2.435-1-5.035-2.414-6.435-4.25c-1.4-1.832-2.7-4.064-3.266-6.699
		c-0.567-2.633-0.851-5.551-0.851-8.75V22.246h15.201v29.102c0,4.268,0.665,7.549,2,9.648c1.332,2.102,3.85,3.15,7.25,3.15
		c3.865,0,5.947-1.006,7.869-3.15c1.63-1.816,1.98-4.383,1.98-9.648V22.246h15.199v51.701H165.178z"/>
	<path d="M358.475,73.885h-14.5c0-1.061,0-3.201,0-3.201h-0.299c0,0-1.846,1.459-4.871,2.514c-3.14,1.094-7,1.986-9.33,1.986
		c-2.467,0-6.17,0-9.568-0.887c-4.104-1.072-7.602-4.35-9.226-7.412c-0.999-1.883-1.706-4.166-1.706-6.834
		c0-2.932,0.487-5.326,1.477-7.25c2.479-4.816,7.569-6.477,11.764-7.59c4.182-1.111,11.825-1.988,13.893-2.188
		c2.065-0.201,7.135-0.826,7.135-0.826s0.099-3.445,0.032-4.912c0-1.533-0.25-2.75-0.75-3.65s-1.167-1.6-2-2.1
		c-0.834-0.5-1.8-0.834-2.899-1c-1.101-0.166-0.935-0.25-2.2-0.25c-2.801,0-5.35,0.6-6.95,1.799c-1.6,1.201-2.534,3.201-2.8,6h-15.2
		c0.2-3.332,1.033-6.1,2.5-8.299c1.466-2.201,3.812-4.066,6.08-5.4c2.266-1.334,7.25-3.6,16.37-3.6c2.601,0,4.583,0.184,7.25,0.549
		c2.666,0.367,5.483,1.191,7.63,2.363c2.75,1.5,4.161,3.059,5.875,5.312c1.058,1.391,2.295,5.941,2.295,9.074v24.301
		 M343.242,50.301c-1.146,0.164-3.911,0.434-5.021,0.543c-1.049,0.102-1.705,0.143-2.347,0.24c-1.13,0.174-3.744,0.527-4.869,0.768
		c-1.804,0.381-2.624,0.781-3.595,1.305c-0.84,0.453-2.399,2.016-2.399,4.225c0,1.383,0.013,2.398,0.479,3.264
		c0.466,0.867,0.854,1.381,1.542,2.027c0.632,0.592,1.372,0.82,2.395,1.188c0.862,0.311,2.33,0.385,3.464,0.385
		c2.801,0,4.415-0.451,6.003-1.293c1.299-0.688,2.246-1.562,2.98-2.863c0.732-1.299,0.982-2.67,1.149-4.004
		c0.166-1.332,0.218-2.4,0.218-3.199V50.301z"/>
	<path d="M368.874,14.246V2.547h15.2v11.699H368.874z M384.074,22.246v51.701h-15.2V22.246H384.074z"/>
	<path d="M409.874,2.547v71.4h-15.2v-71.4H409.874z"/>
	<path d="M307.676,2.547v10.205c-1.56,0-5.399,0-7.2,0c-1.934,0-3.316,0.945-4.149,1.846c-0.835,0.898-1.25,2.416-1.25,4.549v3.1
		h11.8v9.5h-11.8v42.201h-15.2V31.746h-4.5v-9.5h4.5v-4c0-4.6,1.433-8.365,4.3-11.299c2.866-2.934,8.2-4.4,14-4.4"/>
	<path d="M250.271,73.947V58.748h15.2v15.199H250.271z"/>
	<polygon fill="#F7941E" points="5.515,22.136 33.381,22.136 57.245,47.984 33.381,73.833 5.515,73.833 	"/>
</g>
</svg>
