<?xml version="1.0" encoding="UTF-8" standalone="no"?><!DOCTYPE svg PUBLIC "-//W3C//DTD SVG 1.1//EN" "http://www.w3.org/Graphics/SVG/1.1/DTD/svg11.dtd"><svg width="100%" height="100%" viewBox="0 0 200 200" version="1.1" xmlns="http://www.w3.org/2000/svg" xmlns:xlink="http://www.w3.org/1999/xlink" xml:space="preserve" xmlns:serif="http://www.serif.com/" style="fill-rule:evenodd;clip-rule:evenodd;stroke-linejoin:round;stroke-miterlimit:1.41421;"><g><g><circle cx="100" cy="100" r="98.529" style="fill:#5ccbf0;fill-opacity:0.35;"/><path d="M100,0c55.192,0 100,44.808 100,100c0,55.192 -44.808,100 -100,100c-55.192,0 -100,-44.808 -100,-100c0,-55.192 44.808,-100 100,-100Zm0,10c49.672,0 90,40.328 90,90c0,49.672 -40.328,90 -90,90c-49.672,0 -90,-40.328 -90,-90c0,-49.672 40.328,-90 90,-90Z" style="fill:#5ccbf0;"/></g><g><path d="M154.176,44.492l-10.846,0l-7.699,7.525l18.545,0c2.076,0 3.763,1.686 3.763,3.762l0,5.732c0,7.584 -2.609,15.021 -7.349,20.944c-4.046,5.06 -9.432,8.814 -15.575,10.861l-5.306,1.768c-1.969,0.657 -3.036,2.788 -2.381,4.762c0.525,1.576 1.995,2.572 3.571,2.572c0.393,0 0.794,-0.063 1.191,-0.191l5.306,-1.772c7.521,-2.505 14.116,-7.105 19.073,-13.297c5.798,-7.253 8.995,-16.362 8.995,-25.647l0,-5.732c0,-6.224 -5.064,-11.287 -11.288,-11.287Z" style="fill:#ff7816;fill-rule:nonzero;"/><path d="M72.791,95.084l-5.306,-1.764c-6.143,-2.051 -11.529,-5.805 -15.575,-10.865c-4.74,-5.923 -7.349,-13.36 -7.349,-20.944l0,-5.732c0,-2.076 1.687,-3.762 3.763,-3.762l19.444,0l-8.598,-7.525l-10.846,0c-6.224,0 -11.288,5.063 -11.288,11.287l0,5.732c0,9.285 3.197,18.394 8.995,25.647c4.957,6.192 11.552,10.792 19.073,13.301l5.306,1.768c0.397,0.128 0.798,0.191 1.191,0.191c1.576,0 3.046,-0.996 3.571,-2.572c0.655,-1.974 -0.412,-4.105 -2.381,-4.762Z" style="fill:#ff9f00;fill-rule:nonzero;"/><path d="M112.788,117.936l0,5.569c0,2.106 1.655,3.762 3.763,3.762c6.246,0 11.287,5.041 11.287,11.288l0,7.525c0,2.106 -1.654,3.762 -3.762,3.762l-45.652,0c-2.108,0 -3.762,-1.656 -3.762,-3.762l0,-7.525c0,-6.247 5.041,-11.288 11.287,-11.288c2.108,0 3.763,-1.656 3.763,-3.762l0,-5.569c-13.997,-4.44 -24.23,-16.781 -25.886,-31.455l-4.666,-41.989l84.18,0l-4.666,41.989c-1.656,14.674 -11.889,27.015 -25.886,31.455Z" style="fill:#ffd400;fill-rule:nonzero;"/><path d="M124.076,149.842l-22.826,0l0,-105.35l42.09,0l-4.666,41.989c-1.656,14.674 -11.889,27.015 -25.886,31.455l0,5.569c0,2.106 1.655,3.762 3.763,3.762c6.246,0 11.287,5.041 11.287,11.288l0,7.525c0,2.106 -1.654,3.762 -3.762,3.762Z" style="fill:#ff9f00;fill-rule:nonzero;"/><path d="M135.364,146.08l0,22.776l-68.228,0l0,-22.776c0,-2.108 1.655,-3.763 3.763,-3.763l60.702,0c2.108,0 3.763,1.655 3.763,3.763Z" style="fill:#ec5569;fill-rule:nonzero;"/><path d="M135.364,146.08l0,22.776l-34.114,0l0,-26.539l30.351,0c2.108,0 3.763,1.655 3.763,3.763Z" style="fill:#cc2e43;fill-rule:nonzero;"/><path d="M142.889,169.156c0,2.107 -1.655,3.763 -3.763,3.763l-75.752,0c-2.108,0 -3.763,-1.656 -3.763,-3.763c0,-2.107 1.655,-3.762 3.763,-3.762l75.752,0c2.108,0 3.763,1.655 3.763,3.762Z" style="fill:#697c86;fill-rule:nonzero;"/><path d="M142.889,169.156c0,2.107 -1.655,3.763 -3.763,3.763l-37.876,0l0,-7.525l37.876,0c2.108,0 3.763,1.655 3.763,3.762Z" style="fill:#465a61;fill-rule:nonzero;"/></g><g><path d="M81.64,75.469l0,21.616l19.61,0l0.069,-40l-19.679,18.384Z" style="fill:#5ccbf0;"/><path d="M101.317,57.085l-0.067,40l19.524,0l0,-21.579l-19.457,-18.421Z" style="fill:#2a98b7;"/></g></g></svg>