<?xml version="1.0" encoding="UTF-8" standalone="no"?><!DOCTYPE svg PUBLIC "-//W3C//DTD SVG 1.1//EN" "http://www.w3.org/Graphics/SVG/1.1/DTD/svg11.dtd"><svg width="100%" height="100%" viewBox="0 0 200 200" version="1.1" xmlns="http://www.w3.org/2000/svg" xmlns:xlink="http://www.w3.org/1999/xlink" xml:space="preserve" xmlns:serif="http://www.serif.com/" style="fill-rule:evenodd;clip-rule:evenodd;stroke-linejoin:round;stroke-miterlimit:1.41421;"><g><g><circle cx="100" cy="100" r="98.529" style="fill:#5ccbf0;fill-opacity:0.25;"/><path d="M100,0c55.192,0 100,44.808 100,100c0,55.192 -44.808,100 -100,100c-55.192,0 -100,-44.808 -100,-100c0,-55.192 44.808,-100 100,-100Zm0,10c49.672,0 90,40.328 90,90c0,49.672 -40.328,90 -90,90c-49.672,0 -90,-40.328 -90,-90c0,-49.672 40.328,-90 90,-90Z" style="fill:#5ccbf0;"/></g><g><path d="M61.587,88.426c-8.084,-1.099 -17.515,2.396 -24.025,8.907l-10.871,10.871c-1.229,1.229 -1.482,3.132 -0.611,4.639c0.85,1.488 2.63,2.246 4.323,1.792c6.899,-1.85 16.029,-2.465 18.274,-0.751l12.91,-25.458Z" style="fill:#ff637b;fill-rule:nonzero;"/><path d="M107.895,135.024l-25.496,12.299c1.421,1.935 1.309,8.055 -0.347,19.261c-0.247,1.658 0.61,3.262 2.073,3.994c1.48,0.749 3.272,0.459 4.445,-0.714l10.871,-10.871c6.142,-6.141 9.462,-15.55 8.454,-23.969Z" style="fill:#e63950;fill-rule:nonzero;"/><path d="M86.232,148.635c-8.968,4.837 -10.109,5.109 -11.469,6.033c-1.522,0.978 -3.479,0.761 -4.783,-0.543l-27.178,-27.178c-1.25,-1.251 -1.522,-3.262 -0.544,-4.784c0.924,-1.359 1.033,-2.229 5.925,-11.578l10.763,-0.109l27.178,27.178l0.108,10.981Z" style="fill:#7c8388;fill-rule:nonzero;"/><path d="M86.232,148.635c-8.968,4.837 -10.109,5.109 -11.469,6.033c-1.522,0.978 -3.479,0.761 -4.783,-0.543l-13.59,-13.59l16.307,-16.306l13.426,13.425l0.109,10.981Z" style="fill:#575f64;fill-rule:nonzero;"/><path d="M86.232,148.635l-38.049,-38.05c18.861,-35.603 41.528,-57.835 67.837,-66.531l18.481,18.372l18.045,18.047c-8.696,26.199 -30.873,49.028 -66.314,68.162Z" style="fill:#faecd8;fill-rule:nonzero;"/><path d="M86.232,148.635l-18.971,-18.971l67.24,-67.238l18.045,18.046c-8.696,26.2 -30.873,49.029 -66.314,68.163Z" style="fill:#f4d7af;fill-rule:nonzero;"/><path d="M152.546,80.472c-8.315,-0.598 -17.23,-4.512 -24.459,-11.632l-0.163,-0.163c-7.284,-7.284 -11.361,-16.253 -11.904,-24.624c2.5,-0.87 5.054,-1.577 7.61,-2.174c9.294,-2.12 19.024,-2.61 29.135,-1.522c0.977,0.109 1.901,0.598 2.445,1.359c0.543,0.543 0.925,1.25 0.979,2.066c1.142,10.055 0.543,19.785 -1.577,29.08c-0.597,2.555 -1.25,5.055 -2.066,7.61Z" style="fill:#ff637b;fill-rule:nonzero;"/><path d="M152.546,80.472c-8.315,-0.598 -17.23,-4.512 -24.459,-11.632l27.123,-27.124c0.543,0.543 0.924,1.25 0.979,2.066c1.141,10.056 0.543,19.785 -1.577,29.08c-0.597,2.555 -1.25,5.055 -2.066,7.61Z" style="fill:#e63950;fill-rule:nonzero;"/><path d="M85.579,114.825c-0.054,-0.925 -0.434,-1.739 -1.087,-2.392c-0.652,-0.87 -1.684,-1.467 -2.771,-1.467c-14.133,-0.109 -17.286,4.891 -18.101,5.707c-23.536,23.536 -23.808,35.115 -23.808,36.31c0.054,1.033 0.434,1.957 1.141,2.663c0.054,0.054 0.109,0.109 0.218,0.109c0.544,0.544 1.304,0.87 2.119,0.924c1.957,0.217 12.991,-0.054 36.636,-23.699c5.328,-5.327 5.708,-10.273 5.653,-18.155Z" style="fill:#ff637b;fill-rule:nonzero;"/><path d="M85.579,114.825c0.055,7.882 -0.325,12.828 -5.653,18.155c-23.645,23.645 -34.679,23.916 -36.635,23.699c-0.816,-0.054 -1.576,-0.38 -2.12,-0.924l43.322,-43.322c0.652,0.653 1.032,1.467 1.086,2.392Z" style="fill:#e63950;fill-rule:nonzero;"/></g><g><path d="M92.777,76.372l-15.294,15.274l13.858,13.876l28.351,-28.217l-26.915,-0.933Z" style="fill:#5ccbf0;"/><path d="M119.69,77.303l-28.35,28.219l13.797,13.814l15.268,-15.249l-0.715,-26.784Z" style="fill:#2a98b7;"/></g></g></svg>