<?xml version="1.0" encoding="UTF-8" standalone="no"?><!DOCTYPE svg PUBLIC "-//W3C//DTD SVG 1.1//EN" "http://www.w3.org/Graphics/SVG/1.1/DTD/svg11.dtd"><svg width="100%" height="100%" viewBox="0 0 200 200" version="1.1" xmlns="http://www.w3.org/2000/svg" xmlns:xlink="http://www.w3.org/1999/xlink" xml:space="preserve" xmlns:serif="http://www.serif.com/" style="fill-rule:evenodd;clip-rule:evenodd;stroke-linejoin:round;stroke-miterlimit:1.41421;"><g><g><g><circle cx="100" cy="100" r="98.529" style="fill:#5ccbf0;fill-opacity:0.35;"/><path d="M100,0c55.192,0 100,44.808 100,100c0,55.192 -44.808,100 -100,100c-55.192,0 -100,-44.808 -100,-100c0,-55.192 44.808,-100 100,-100Zm0,10c49.672,0 90,40.328 90,90c0,49.672 -40.328,90 -90,90c-49.672,0 -90,-40.328 -90,-90c0,-49.672 40.328,-90 90,-90Z" style="fill:#5ccbf0;"/></g><g><path d="M155.121,123.345c-3.861,10.465 -9.7,19.564 -17.358,27.042c-8.717,8.512 -20.13,15.275 -33.925,20.1c-0.452,0.157 -0.925,0.287 -1.399,0.382c-0.627,0.124 -1.265,0.191 -1.897,0.2l-0.124,0c-0.674,0 -1.352,-0.068 -2.023,-0.2c-0.475,-0.095 -0.941,-0.225 -1.391,-0.379c-13.811,-4.817 -25.239,-11.577 -33.964,-20.089c-7.661,-7.478 -13.5,-16.571 -17.355,-27.036c-7.011,-19.026 -6.613,-39.986 -6.291,-56.83l0.005,-0.258c0.065,-1.391 0.106,-2.852 0.129,-4.465c0.118,-7.921 6.415,-14.474 14.337,-14.916c16.517,-0.922 29.294,-6.308 40.211,-16.95l0.096,-0.087c1.812,-1.663 4.097,-2.478 6.37,-2.444c2.192,0.028 4.375,0.843 6.123,2.444l0.093,0.087c10.92,10.642 23.697,16.028 40.213,16.95c7.922,0.442 14.22,6.995 14.337,14.916c0.023,1.624 0.065,3.083 0.13,4.465l0.003,0.109c0.32,16.875 0.717,37.877 -6.32,56.959Z" style="fill:#00dd7f;fill-rule:nonzero;"/><path d="M155.121,123.345c-3.861,10.465 -9.7,19.564 -17.358,27.042c-8.717,8.512 -20.13,15.275 -33.925,20.1c-0.452,0.157 -0.925,0.287 -1.399,0.382c-0.627,0.124 -1.265,0.191 -1.897,0.2l0,-143.654c2.192,0.028 4.375,0.843 6.123,2.444l0.093,0.087c10.92,10.642 23.697,16.028 40.213,16.95c7.922,0.442 14.22,6.995 14.337,14.916c0.023,1.624 0.065,3.083 0.13,4.465l0.003,0.109c0.32,16.875 0.717,37.877 -6.32,56.959Z" style="fill:#00aa62;fill-rule:nonzero;"/><path d="M136.218,99.241c0,19.698 -15.994,35.733 -35.676,35.803l-0.126,0c-19.74,0 -35.803,-16.062 -35.803,-35.803c0,-19.74 16.063,-35.802 35.803,-35.802l0.126,0c19.682,0.07 35.676,16.105 35.676,35.802Z" style="fill:#fefefe;fill-rule:nonzero;"/><path d="M136.218,99.241c0,19.698 -15.994,35.733 -35.676,35.803l0,-71.605c19.682,0.07 35.676,16.105 35.676,35.802Z" style="fill:#e0ebef;fill-rule:nonzero;"/><path d="M103.454,113.447l-3.039,-14.926l-15.64,15.718l9.116,8.949l9.563,-9.741Z" style="fill:#5ccbf0;"/><path d="M115.304,83.213l-14.889,15.308l0.127,17.817l23.928,-24.133l-0.332,-8.992l-8.834,0Z" style="fill:#2a98b7;"/><path d="M99.974,113.447l-3.179,-3.12l-0.141,-0.139l-1.387,-1.362l-14.384,-14.122l-7.932,8.079l19.092,18.743l7.931,-8.079Z" style="fill:#5ccbf0;"/></g></g></g></svg>